<svg width="28" height="233" viewBox="0 0 28 233" fill="none" xmlns="http://www.w3.org/2000/svg">
<path d="M27.2329 0.726074C27.2329 0.726074 27.2544 1.04834 27.2974 1.69287C27.3511 2.3374 27.4155 3.18066 27.4907 4.22266C27.5659 5.26465 27.6357 6.39795 27.7002 7.62256C27.7754 8.84717 27.8345 10.0503 27.8774 11.2319C27.9312 12.4243 27.958 13.4771 27.958 14.3901C27.958 16.4956 27.5605 18.3218 26.7656 19.8687C25.9707 21.4155 24.9072 22.6938 23.5752 23.7036C22.2539 24.7134 20.7876 25.4653 19.1763 25.9595C17.5757 26.4536 15.9644 26.7007 14.3423 26.7007C12.3228 26.7007 10.5181 26.3569 8.92822 25.6694C7.33838 24.9819 5.99023 24.0205 4.88379 22.7852C3.77734 21.5605 2.93408 20.1157 2.354 18.4507C1.78467 16.7964 1.5 15.0024 1.5 13.0688L1.5 0.726073L27.2329 0.726074ZM9.25049 10.7485C9.73389 11.3179 10.2173 11.9302 10.7007 12.5854C11.1841 13.2407 11.6997 13.8584 12.2476 14.4385C12.7954 15.0293 13.4077 15.5073 14.0845 15.8726C14.772 16.2485 15.5615 16.4365 16.4531 16.4365C17.0439 16.4365 17.6455 16.313 18.2578 16.0659C18.8701 15.8188 19.3804 15.459 19.7886 14.9863C20.2075 14.5244 20.417 13.9497 20.417 13.2622C20.417 12.7681 20.2827 12.3008 20.0142 11.8604C19.7456 11.4307 19.4287 11.0601 19.0635 10.7485L9.25049 10.7485ZM1.5 39.9136L1.5 29.8911L27.2329 29.8911L27.2329 39.9136L1.5 39.9136ZM27.2329 43.8452L27.2329 46.4556L17.2104 60.5063L27.2329 60.5063L27.2329 69.5781L1.5 69.5781L1.5 66.1138L10.3462 52.8848L1.5 52.8848L1.5 43.8452L27.2329 43.8452ZM1.82226 97.6475C1.82226 97.6475 1.77392 97.3413 1.67724 96.729C1.58056 96.1274 1.47314 95.3594 1.35498 94.4248C1.22607 93.4902 1.11328 92.5127 1.0166 91.4922C0.919918 90.4717 0.871578 89.5425 0.871578 88.7046C0.871578 86.4058 1.18847 84.2734 1.82226 82.3076C2.45605 80.3525 3.36914 78.6445 4.56152 77.1836C5.7539 75.7334 7.18798 74.6055 8.86377 73.7998C10.5395 72.9941 12.4194 72.5913 14.5034 72.5913C16.5874 72.5913 18.4565 73.0264 20.1108 73.8965C21.7759 74.7666 23.1885 75.9858 24.3486 77.5542C25.5195 79.1226 26.4111 80.9648 27.0234 83.0811C27.6465 85.208 27.958 87.5229 27.958 90.0259C27.958 91.4438 27.8774 92.6201 27.7163 93.5547C27.5659 94.4893 27.4102 95.1875 27.249 95.6494C27.0879 96.1221 27.0073 96.3691 27.0073 96.3906L19.2246 96.3906C19.708 94.8115 19.9497 93.3506 19.9497 92.0078C19.9497 90.2891 19.6274 88.8604 18.9829 87.7217C18.3491 86.5937 17.5435 85.7505 16.5659 85.1919C15.5991 84.6333 14.6162 84.354 13.6172 84.354C12.457 84.354 11.5063 84.6709 10.7651 85.3047C10.0239 85.9492 9.65332 86.8301 9.65332 87.9473C9.65332 88.1943 9.66943 88.4414 9.70166 88.6885C9.74462 88.9355 9.80371 89.1504 9.8789 89.333C10.2764 89.3545 10.7866 89.3652 11.4097 89.3652C12.0435 89.3652 12.8223 89.3652 13.7461 89.3652C13.7461 91.4277 13.7461 93.0229 13.7461 94.1509C13.7568 95.2896 13.7622 96.106 13.7622 96.6001C13.7622 97.0942 13.7622 97.3896 13.7622 97.4863C13.7729 97.5937 13.7783 97.6475 13.7783 97.6475L1.82226 97.6475ZM1.5 99.8872L25.9277 112.681C26.5185 112.993 26.9751 113.476 27.2974 114.131C27.6304 114.787 27.7969 115.469 27.7969 116.178C27.7969 116.812 27.6519 117.429 27.3618 118.031C27.0718 118.643 26.626 119.116 26.0244 119.449L1.49999 133.177L1.49999 120.109L4.04589 119.094L4.04589 112.133L1.5 111.263L1.5 99.8872ZM9.1538 112.923L9.1538 118.127L16.1147 115.662L9.1538 112.923ZM27.2329 135.626C27.2329 135.626 27.2544 135.949 27.2974 136.593C27.3511 137.238 27.4155 138.081 27.4907 139.123C27.5659 140.165 27.6357 141.298 27.7002 142.523C27.7754 143.748 27.8345 144.951 27.8774 146.132C27.9311 147.325 27.958 148.377 27.958 149.291C27.958 151.396 27.5605 153.222 26.7656 154.769C25.9707 156.316 24.9072 157.594 23.5752 158.604C22.2539 159.614 20.7876 160.366 19.1763 160.86C17.5757 161.354 15.9643 161.601 14.3423 161.601C12.3227 161.601 10.5181 161.257 8.92822 160.57C7.33837 159.882 5.99023 158.921 4.88378 157.686C3.77734 156.461 2.93408 155.016 2.354 153.351C1.78466 151.697 1.49999 149.903 1.49999 147.969L1.49999 135.626L27.2329 135.626ZM9.25048 145.649C9.73388 146.218 10.2173 146.831 10.7007 147.486C11.1841 148.141 11.6997 148.759 12.2476 149.339C12.7954 149.93 13.4077 150.408 14.0845 150.773C14.772 151.149 15.5615 151.337 16.4531 151.337C17.0439 151.337 17.6455 151.213 18.2578 150.966C18.8701 150.719 19.3804 150.359 19.7886 149.887C20.2075 149.425 20.417 148.85 20.417 148.163C20.417 147.668 20.2827 147.201 20.0142 146.761C19.7456 146.331 19.4287 145.96 19.0635 145.649L9.25048 145.649ZM1.49999 174.814L1.49999 164.792L27.2329 164.792L27.2329 174.814L1.49999 174.814ZM27.2329 178.746L27.2329 181.356L17.2104 195.407L27.2329 195.407L27.2329 204.479L1.49999 204.479L1.49999 201.014L10.3462 187.785L1.49999 187.785L1.49999 178.746L27.2329 178.746ZM1.82226 232.548C1.82226 232.548 1.77392 232.242 1.67724 231.629C1.58056 231.028 1.47313 230.26 1.35497 229.325C1.22606 228.391 1.11327 227.413 1.01659 226.393C0.919912 225.372 0.871572 224.443 0.871572 223.605C0.871572 221.306 1.18847 219.174 1.82226 217.208C2.45605 215.253 3.36913 213.545 4.56151 212.084C5.7539 210.634 7.18798 209.506 8.86376 208.7C10.5395 207.895 12.4194 207.492 14.5034 207.492C16.5874 207.492 18.4565 207.927 20.1108 208.797C21.7759 209.667 23.1885 210.886 24.3486 212.455C25.5195 214.023 26.4111 215.865 27.0234 217.981C27.6465 220.108 27.958 222.423 27.958 224.926C27.958 226.344 27.8774 227.521 27.7163 228.455C27.5659 229.39 27.4101 230.088 27.249 230.55C27.0879 231.022 27.0073 231.27 27.0073 231.291L19.2246 231.291C19.708 229.712 19.9497 228.251 19.9497 226.908C19.9497 225.189 19.6274 223.761 18.9829 222.622C18.3491 221.494 17.5434 220.651 16.5659 220.092C15.5991 219.534 14.6162 219.254 13.6172 219.254C12.457 219.254 11.5063 219.571 10.7651 220.205C10.0239 220.85 9.65331 221.73 9.65331 222.848C9.65331 223.095 9.66942 223.342 9.70165 223.589C9.74462 223.836 9.8037 224.051 9.8789 224.233C10.2764 224.255 10.7866 224.266 11.4097 224.266C12.0434 224.266 12.8223 224.266 13.7461 224.266C13.7461 226.328 13.7461 227.923 13.7461 229.051C13.7568 230.19 13.7622 231.006 13.7622 231.5C13.7622 231.995 13.7622 232.29 13.7622 232.387C13.7729 232.494 13.7783 232.548 13.7783 232.548L1.82226 232.548Z" fill="white"/>
</svg>
